PathFileType	4	(X/Y/Z)	Patient4_TMGait_0pt5_02_left_36.trc.trc
DataRate	CameraRate	NumFrames	NumMarkers	Units	OrigDataRate	OrigDataStartFrame	OrigNumFrames
76.923076923077	76.923076923077	4	33	mm	76.923076923077	53	       141
Frame#	Time	Sacral			L.Shoulder			Chest			R.Shoulder			Neck			R.ASIS			L.ASIS			R.Thigh.Superior			R.Thigh.Lateral			R.Thigh.Inferior			R.Patella			L.Thigh.Superior			L.Thigh.Lateral			L.Thigh.Inferior			L.Patella			L.Shank.Superior			L.Shank.Lateral			L.Shank.Inferior			R.Shank.Superior			R.Shank.Lateral			R.Shank.Inferior			R.Heel			R.Midfoot.Superior			R.Midfoot.Lateral			R.Toe			L.Heel			L.Midfoot.Lateral			L.Midfoot.Superior			L.Toe			L.Elbow			L.Wrist			R.Elbow			R.Wrist			
		X1	Y1	Z1	X2	Y2	Z2	X3	Y3	Z3	X4	Y4	Z4	X5	Y5	Z5	X6	Y6	Z6	X7	Y7	Z7	X8	Y8	Z8	X9	Y9	Z9	X10	Y10	Z10	X11	Y11	Z11	X12	Y12	Z12	X13	Y13	Z13	X14	Y14	Z14	X15	Y15	Z15	X16	Y16	Z16	X17	Y17	Z17	X18	Y18	Z18	X19	Y19	Z19	X20	Y20	Z20	X21	Y21	Z21	X22	Y22	Z22	X23	Y23	Z23	X24	Y24	Z24	X25	Y25	Z25	X26	Y26	Z26	X27	Y27	Z27	X28	Y28	Z28	X29	Y29	Z29	X30	Y30	Z30	X31	Y31	Z31	X32	Y32	Z32	X33	Y33	Z33	

53	47.016000000000	728.795732086701	1010.341441769903	451.751461353674	915.627668071107	1437.344149607046	272.845797795201	1015.606335271785	1366.080246397208	435.298080167023	929.831841283877	1439.905295675518	609.259631797493	915.624042587780	1497.760276108316	423.873650846596	954.429185516147	948.208488187116	571.132089452430	945.964437876158	962.879062329043	297.777288890159	1037.400702240233	778.286982500055	538.916580789815	1000.133026363591	656.382272820817	609.968136743495	1088.709127091002	617.243950391128	529.150187799675	1107.497408033032	501.840048634934	550.013223966572	995.090758481264	753.767201002375	325.320201310020	906.119386952725	637.850445661429	269.514972483241	991.354966809721	560.731848091131	332.126305481393	991.845158791992	489.828663861951	342.631201292276	963.996371073950	417.952712409808	335.322241122220	873.329791403511	304.173344116756	286.341289667942	923.322544896045	193.038485398131	357.586378556696	1027.923665185824	429.294263948534	559.247590413968	906.559455298153	395.854143395086	623.380047895695	884.498279587746	288.096203519579	574.817753544200	680.748429894997	241.261669501196	554.721885849720	844.997586111632	166.873458667709	585.482558602418	736.200863873271	172.026179485866	623.052270426080	901.227479886167	46.985438239353	604.062124021075	794.059511270099	38.203723854429	403.303913358871	865.823903656370	35.505648008870	320.302919072711	949.702391986230	96.113459262169	344.971202793629	1077.651809887498	42.937806732304	312.863403838271	912.381631275112	1103.495902526898	106.996255361633	1086.832184917847	907.276199237172	100.215203356782	881.472670827472	1091.116249220713	717.753147365917	985.472620761282	852.238730945057	700.304074337228	
54	47.029000000000	727.672537908201	1010.947383587161	450.293835274748	917.019258619649	1437.728122985515	272.282617515306	1015.478634411624	1366.378098110921	435.605601663616	928.328795060269	1440.365110662350	608.867929613512	915.743072537901	1498.183625205333	423.346862608138	953.138180692304	949.282242528534	571.168214240187	946.276082087290	963.396422546647	297.524298577459	1038.552052512164	782.418167467763	538.306333289611	1004.251065984093	659.952329728691	609.759811439772	1093.420880786553	622.528874665811	528.790311926073	1114.947328620353	507.676549817909	549.764088264583	993.278853072202	752.999267806420	325.496608290713	903.253708943183	637.908754155674	269.452432919571	987.358224528460	560.005539969284	332.468096296488	987.027455150945	489.197398334903	343.161386624521	959.022458582382	417.634029155818	335.601462437012	868.026442644252	304.217613737980	286.419985529301	917.366620719307	192.887841966307	357.744107705923	1037.266924362116	433.208901305320	558.945626378699	916.833706823677	396.290921964634	622.849241317550	897.929593106538	287.952339219715	574.343153866463	695.689344138103	235.115998646144	553.966103484076	861.895890350352	165.508133100466	584.698459195395	753.083773456607	167.468957590686	622.261986573148	921.533116918337	47.534475984661	603.176619625834	787.470278279045	38.216750906602	403.257183759206	859.293946892739	35.515108867053	320.274771682918	943.197584689194	96.087191541211	344.987834430219	1071.135462842521	42.826034795282	312.835891417855	919.340403737558	1105.311776618568	104.263999946801	1101.631390317601	916.557506206345	98.013484764419	873.096265492821	1092.856709113818	717.599239388847	961.098484358439	846.614443084168	705.526720514718	
55	47.042000000000	726.669513213004	1011.608773595589	448.927522853278	918.465893341616	1438.188653021383	271.889484748490	1015.408457357065	1366.722867683513	436.042080400062	926.905811943510	1440.823597124560	608.619589965845	915.857890373852	1498.639807356891	423.012697212191	951.872450223523	950.318372107024	571.267208702314	946.805891513863	963.956837601786	297.311449426155	1039.366796102032	786.185127458877	538.023162384218	1007.609272435371	663.279424759968	609.843138111951	1097.258530643118	627.336913104541	528.770918635471	1121.263524239185	513.304838053186	549.914228610168	991.400171306082	752.212164750448	325.900855963165	900.336309625652	637.995034489191	269.435299830207	983.200520426191	559.272702805582	332.897006460386	981.995142128461	488.573216866924	343.740752376771	953.887652129723	417.342710411461	335.899908597573	862.610122299698	304.261155464390	286.502728497662	911.342601269407	192.758230906328	357.904012088488	1045.969488082320	436.772278954477	558.977483275128	926.892933177201	395.568269949349	622.652717742984	911.924877845137	286.648824819458	574.145909346325	711.769615695437	226.468968715981	553.460345160691	880.253875096819	162.893387005281	584.178359985592	771.527485519547	160.877461127735	621.714543070588	944.101782746338	47.428949803899	602.542438609872	780.875202359746	38.227207315194	403.211087081464	852.757490192972	35.516702524245	320.250713586237	936.683505912448	96.063937136124	345.004433768155	1064.613511163324	42.730980098841	312.817420813229	925.921421494567	1107.241860376467	101.935810486696	1115.934550759395	926.510139708919	96.333458889957	864.619679366076	1094.863770443118	717.641046008401	937.058165113259	842.871155886619	710.526571184133	
56	47.055000000000	725.818549430530	1012.284810145542	447.665906668805	919.959608051479	1438.684665269072	271.662045153858	1015.396942193022	1367.082174567445	436.605067054657	925.565166346123	1441.258844432193	608.505952653702	915.983886949230	1499.098876748509	422.857471110308	950.638551174191	951.271230545170	571.433473419731	947.529029823217	964.523303572265	297.162935192583	1039.847677296188	789.484433357638	538.047276530554	1010.177857218753	666.240273314972	610.192620046821	1100.176680801613	631.515248241800	529.052895179503	1126.375542354649	518.578155254916	550.412760941477	989.468844667755	751.401357953364	326.528445603583	897.382246789111	638.101959030848	269.447416309559	978.891332268654	558.531074631306	333.396489415764	976.763411237698	487.957323804230	344.348400135194	948.605235247957	417.069105661026	336.203714918382	857.092616297895	304.297243631597	286.578330549845	905.259069283573	192.645099304268	358.063278803819	1053.955849474928	439.909137710748	559.318831273063	936.757583411445	393.707322574360	622.813846911172	926.448107553156	284.293842224454	574.245381450751	729.091296842775	215.606614340291	553.290355817484	900.005713650051	159.230725212286	583.955511169712	791.558853195934	152.534161621552	621.468381744934	968.726232774074	46.847982085203	602.157179890691	774.281020049209	38.233624094667	403.163530068546	846.215639545741	35.509236260744	320.229743442452	930.161803044639	96.043105928061	345.021412849208	1058.086949269290	42.653053694446	312.807200005533	932.116434666315	1109.222500647089	99.994194334097	1129.687163666076	937.085354558881	95.163245937569	856.024059155656	1097.111339278780	717.832954310710	913.610014442487	840.879907193787	715.223165471933	
